<svg width="20" height="20" viewBox="0 0 20 20" fill="none" xmlns="http://www.w3.org/2000/svg">
<rect width="20" height="20" rx="5" fill="black" fill-opacity="0.38"/>
<path d="M10.3125 14.375C11.2767 14.375 12.2192 14.0891 13.0209 13.5534C13.8226 13.0177 14.4474 12.2564 14.8164 11.3656C15.1854 10.4748 15.2819 9.49459 15.0938 8.54894C14.9057 7.60328 14.4414 6.73464 13.7596 6.05286C13.0779 5.37108 12.2092 4.90678 11.2636 4.71867C10.3179 4.53057 9.33771 4.62711 8.44692 4.99609C7.55613 5.36507 6.79476 5.98991 6.25909 6.7916C5.72341 7.59329 5.4375 8.53582 5.4375 9.5V12.0188L3.975 10.5563L3.40625 11.125L5.84375 13.5625L8.28125 11.125L7.7125 10.5563L6.25 12.0188V9.5C6.25 8.69652 6.48826 7.91107 6.93465 7.243C7.38105 6.57492 8.01552 6.05422 8.75785 5.74674C9.50017 5.43926 10.317 5.35881 11.1051 5.51556C11.8931 5.67231 12.617 6.05923 13.1851 6.62738C13.7533 7.19553 14.1402 7.9194 14.2969 8.70745C14.4537 9.4955 14.3732 10.3123 14.0658 11.0547C13.7583 11.797 13.2376 12.4315 12.5695 12.8778C11.9014 13.3242 11.116 13.5625 10.3125 13.5625V14.375Z" fill="white"/>
</svg>
